Coordinates
version=1
nRows=6
nColumns=38
inDegrees=yes

Units are S.I. units (second, meters, Newtons, ...)
Angles are in degrees.

endheader
time	pelvis_tilt	pelvis_list	pelvis_rotation	pelvis_tx	pelvis_ty	pelvis_tz	hip_flexion_r	hip_adduction_r	hip_rotation_r	knee_angle_r	ankle_angle_r	subtalar_angle_r	mtp_angle_r	hip_flexion_l	hip_adduction_l	hip_rotation_l	knee_angle_l	ankle_angle_l	subtalar_angle_l	mtp_angle_l	lumbar_extension	lumbar_bending	lumbar_rotation	arm_flex_r	arm_add_r	arm_rot_r	elbow_flex_r	pro_sup_r	wrist_flex_r	wrist_dev_r	arm_flex_l	arm_add_l	arm_rot_l	elbow_flex_l	pro_sup_l	wrist_flex_l	wrist_dev_l
      0.90000000	     -2.59692080	      3.45203604	      0.51347632	     -1.14510748	      0.92247261	     -0.27632737	     27.61168029	     -1.46967656	     -1.42885207	    -57.07221905	     -2.91518680	     -9.93143294	     16.45967701	      8.31628272	      8.18653881	      6.02232293	    -22.20142012	     10.72494530	      0.06554944	      3.48243646	     -4.38988451	     -2.89694118	     -2.61492556	     -2.54734107	    -17.08532100	     15.26003003	     20.77263113	     86.51662706	      0.00000000	      0.00000000	      1.58832789	    -16.20190398	     27.80565547	     21.84850509	     86.51662706	      0.00000000	      0.00000000
      0.91000000	     -2.30061502	      3.28048042	      0.65298558	     -1.13272271	      0.92330218	     -0.27635640	     27.86425496	     -1.45047020	     -1.83934925	    -54.29029408	     -2.51230091	    -10.44130525	     16.58712015	      6.54933366	      7.95681014	      6.32410968	    -21.13083703	     10.91705126	      0.08684564	      3.47638064	     -4.71850383	     -2.64746012	     -3.24692386	     -2.84135482	    -17.06124612	     14.68179910	     20.40505248	     86.51662706	      0.00000000	      0.00000000	      1.97449154	    -16.57144693	     27.06353693	     23.30779444	     86.51662706	      0.00000000	      0.00000000
      0.92000000	     -2.09498128	      3.13805768	      0.78102083	     -1.12041877	      0.92374305	     -0.27633987	     28.14657911	     -1.45623196	     -2.25515433	    -51.34816120	     -2.21028848	    -10.90875449	     16.45011877	      4.92854290	      7.74040409	      6.52876033	    -20.14692419	     11.18654610	      0.18274139	      3.51082696	     -4.96396439	     -2.44107491	     -3.79342243	     -3.12415273	    -17.02880304	     14.27383779	     19.95372222	     86.51662706	      0.00000000	      0.00000000	      2.45399150	    -16.92746869	     26.63086330	     24.58647906	     86.51662706	      0.00000000	      0.00000000
      0.93000000	     -1.95705513	      3.02394372	      0.90203657	     -1.10815240	      0.92384234	     -0.27628040	     28.42427050	     -1.48542592	     -2.66904632	    -48.24237295	     -1.97963720	    -11.27391856	     16.09637192	      3.41907597	      7.53952534	      6.65026025	    -19.23014425	     11.50287894	      0.34166783	      3.58060698	     -5.14782013	     -2.27374359	     -4.27229088	     -3.39501362	    -16.98673534	     14.00530269	     19.43177233	     86.51662706	      0.00000000	      0.00000000	      3.00329497	    -17.27089236	     26.43021339	     25.72132322	     86.51662706	      0.00000000	      0.00000000
      0.94000000	     -1.86029395	      2.93619206	      1.02159935	     -1.09587993	      0.92365814	     -0.27618591	     28.65857869	     -1.53522492	     -3.07852797	    -44.97343532	     -1.78545261	    -11.45833615	     15.58597186	      1.98283120	      7.35536150	      6.70599701	    -18.36232513	     11.83101436	      0.54941735	      3.67907897	     -5.29516635	     -2.14038229	     -4.70397431	     -3.65250766	    -16.93361830	     13.83989857	     18.85553803	     86.51662706	      0.00000000	      0.00000000	      3.59471602	    -17.60249837	     26.36871722	     26.75533744	     86.51662706	      0.00000000	      0.00000000
      0.95000000	     -1.78090762	      2.87148277	      1.14480277	     -1.08356516	      0.92324327	     -0.27606343	     28.81668507	     -1.60112946	     -3.49054506	    -41.55137246	     -1.59583819	    -11.38084441	     14.98001940	      0.58817087	      7.18692186	      6.71416361	    -17.53355100	     12.14021595	      0.79146054	      3.79926212	     -5.42887622	     -2.03568326	     -5.10645770	     -3.89446802	    -16.86836165	     13.74388964	     18.24150561	     86.51662706	      0.00000000	      0.00000000	      4.20251333	    -17.92281477	     26.35746327	     27.72805678	     86.51662706	      0.00000000	      0.00000000
